<svg id="SvgjsSvg1001" width="288" height="288" xmlns="http://www.w3.org/2000/svg" version="1.1" xmlns:xlink="http://www.w3.org/1999/xlink" xmlns:svgjs="http://svgjs.com/svgjs"><defs id="SvgjsDefs1002"></defs><g id="SvgjsG1008"><svg xmlns="http://www.w3.org/2000/svg" width="288" height="288" viewBox="0 0 32 32"><path fill="#e7f3ff" d="M8.562 15.256A21.159 21.159 0 0016 16.449a21.159 21.159 0 007.438-1.194c1.864-.727 2.525-1.535 2.525-2V9.7a10.357 10.357 0 01-2.084 1.076A22.293 22.293 0 0116 12.078a22.36 22.36 0 01-7.879-1.3A10.28 10.28 0 016.037 9.7v3.55C6.037 13.724 6.7 14.528 8.562 15.256zM8.562 21.961a15.611 15.611 0 002.6.741A24.9 24.9 0 0016 23.155a24.9 24.9 0 004.838-.452 15.614 15.614 0 002.6-.741c1.864-.727 2.525-1.535 2.525-2v-3.39a10.706 10.706 0 01-1.692.825A23.49 23.49 0 0116 18.74a23.49 23.49 0 01-8.271-1.348 10.829 10.829 0 01-1.692-.825V19.96C6.037 20.426 6.7 21.231 8.562 21.961zM16 30c5.5 0 9.963-1.744 9.963-3.894V23.269a10.5 10.5 0 01-1.535.762l-.157.063A23.487 23.487 0 0116 25.445a23.422 23.422 0 01-8.271-1.351c-.054-.02-.106-.043-.157-.063a10.5 10.5 0 01-1.535-.762v2.837C6.037 28.256 10.5 30 16 30z" class="colorffda44 svgShape"></path><ellipse cx="16" cy="5.894" fill="#e7f3ff" rx="9.963" ry="3.894" class="colorffda44 svgShape"></ellipse></svg></g></svg>